# xmcd CD database file
#
# Track frame offsets:
#	150
#	22948
#	47356
#	64317
#	87994
#	111832
#	121840
#	154498
#	176871
#	196424
#	211869
#
# Disc length: 3111 seconds
#
# Revision: 0
# Processed by: cddbd v1.5.2PL0 Copyright (c) Steve Scherf et al.
# Submitted via: CDex 1.51
#
DISCID=930c250b
DTITLE=Chen Yue - Rapture
DYEAR=2006
DGENRE=New Age
TTITLE0=Early Evening
TTITLE1=Resident In
TTITLE2=Happening Under Color Moonlight
TTITLE3=Pastrol Song
TTITLE4=Sending
TTITLE5=Plum
TTITLE6=Two Spring Projection Month
TTITLE7=Mothers
TTITLE8=Castle
TTITLE9=Celebration
TTITLE10=Thoughts
EXTD=YEAR: 2006
EXTT0=
EXTT1=
EXTT2=
EXTT3=
EXTT4=
EXTT5=
EXTT6=
EXTT7=
EXTT8=
EXTT9=
EXTT10=
PLAYORDER=
